<mxfile host="65bd71144e">
    <diagram id="ePrbd7EGi-OSffqME4N7" name="画面遷移">
        <mxGraphModel dx="1264" dy="929" grid="1" gridSize="10" guides="1" tooltips="1" connect="1" arrows="1" fold="1" page="1" pageScale="1" pageWidth="827" pageHeight="1169" math="0" shadow="0">
            <root>
                <mxCell id="0"/>
                <mxCell id="1" parent="0"/>
                <mxCell id="127" value="" style="group" vertex="1" connectable="0" parent="1">
                    <mxGeometry x="79.99999999999997" y="160" width="640" height="360" as="geometry"/>
                </mxCell>
                <mxCell id="5" value="" style="rounded=0;whiteSpace=wrap;html=1;fontSize=36;strokeWidth=3;fillColor=#FAFAFA;strokeColor=#050505;" parent="127" vertex="1">
                    <mxGeometry width="640" height="360" as="geometry"/>
                </mxCell>
                <mxCell id="9" value="" style="group" parent="127" vertex="1" connectable="0">
                    <mxGeometry x="600" width="40" height="360" as="geometry"/>
                </mxCell>
                <mxCell id="6" value="" style="rounded=0;whiteSpace=wrap;html=1;fontSize=36;strokeColor=#006EAF;strokeWidth=1;fillColor=#1ba1e2;fontColor=#ffffff;" parent="9" vertex="1">
                    <mxGeometry width="40" height="360" as="geometry"/>
                </mxCell>
                <mxCell id="7" value="" style="triangle;whiteSpace=wrap;html=1;fontSize=36;strokeColor=#001DBC;strokeWidth=1;fillColor=#0050ef;fontColor=#ffffff;" parent="9" vertex="1">
                    <mxGeometry x="10" y="140" width="20" height="80" as="geometry"/>
                </mxCell>
                <mxCell id="10" value="" style="group;rotation=-180;" parent="127" vertex="1" connectable="0">
                    <mxGeometry x="2.842170943040401e-14" width="40" height="360" as="geometry"/>
                </mxCell>
                <mxCell id="11" value="" style="rounded=0;whiteSpace=wrap;html=1;fontSize=36;strokeColor=#006EAF;strokeWidth=1;fillColor=#1ba1e2;fontColor=#ffffff;rotation=-180;" parent="10" vertex="1">
                    <mxGeometry width="40" height="360" as="geometry"/>
                </mxCell>
                <mxCell id="12" value="" style="triangle;whiteSpace=wrap;html=1;fontSize=36;strokeColor=#001DBC;strokeWidth=1;fillColor=#0050ef;fontColor=#ffffff;rotation=-180;" parent="10" vertex="1">
                    <mxGeometry x="10" y="140" width="20" height="80" as="geometry"/>
                </mxCell>
                <mxCell id="2" value="&lt;font style=&quot;font-size: 36px&quot;&gt;ボタン押下による画面遷移&lt;/font&gt;" style="text;html=1;align=center;verticalAlign=middle;resizable=0;points=[];autosize=1;strokeColor=none;fillColor=none;" parent="1" vertex="1">
                    <mxGeometry x="189" y="40" width="450" height="30" as="geometry"/>
                </mxCell>
                <mxCell id="111" style="edgeStyle=orthogonalEdgeStyle;rounded=0;html=1;exitX=1;exitY=0.5;exitDx=0;exitDy=0;fontSize=18;endArrow=diamondThin;endFill=0;endSize=12;strokeWidth=1;" edge="1" parent="1" source="45">
                    <mxGeometry relative="1" as="geometry">
                        <mxPoint x="440" y="1020" as="targetPoint"/>
                    </mxGeometry>
                </mxCell>
                <mxCell id="45" value="ScreenTransitionButton" style="swimlane;fontSize=18;" vertex="1" parent="1">
                    <mxGeometry x="40" y="840" width="320" height="360" as="geometry"/>
                </mxCell>
                <mxCell id="46" value="&lt;span style=&quot;text-align: left&quot;&gt;- OnButtonClick()&lt;/span&gt;" style="text;html=1;align=center;verticalAlign=middle;resizable=0;points=[];autosize=1;strokeColor=none;fillColor=none;fontSize=18;" vertex="1" parent="45">
                    <mxGeometry x="10" y="290" width="150" height="30" as="geometry"/>
                </mxCell>
                <mxCell id="49" value="&lt;span style=&quot;text-align: left&quot;&gt;- UnityEvent screenTransition&lt;/span&gt;" style="text;html=1;align=center;verticalAlign=middle;resizable=0;points=[];autosize=1;strokeColor=none;fillColor=none;fontSize=18;" vertex="1" parent="45">
                    <mxGeometry x="10" y="50" width="250" height="30" as="geometry"/>
                </mxCell>
                <mxCell id="50" value="&lt;span style=&quot;text-align: left&quot;&gt;+ SetScreenEvent(UnityEvent event)&lt;br&gt;&lt;/span&gt;" style="text;html=1;align=center;verticalAlign=middle;resizable=0;points=[];autosize=1;strokeColor=none;fillColor=none;fontSize=18;" vertex="1" parent="45">
                    <mxGeometry x="10" y="210" width="310" height="30" as="geometry"/>
                </mxCell>
                <mxCell id="96" value="&lt;span style=&quot;text-align: left&quot;&gt;+ SetDirection(ScreenType type)&lt;br&gt;&lt;/span&gt;" style="text;html=1;align=center;verticalAlign=middle;resizable=0;points=[];autosize=1;strokeColor=none;fillColor=none;fontSize=18;" vertex="1" parent="45">
                    <mxGeometry x="10" y="250" width="280" height="30" as="geometry"/>
                </mxCell>
                <mxCell id="159" value="-ScreenType screenType" style="text;html=1;align=center;verticalAlign=middle;resizable=0;points=[];autosize=1;strokeColor=none;fillColor=none;fontSize=18;" vertex="1" parent="45">
                    <mxGeometry x="10" y="90" width="220" height="30" as="geometry"/>
                </mxCell>
                <mxCell id="162" value="+ SetScreenType(ScreenType type)" style="text;html=1;align=center;verticalAlign=middle;resizable=0;points=[];autosize=1;strokeColor=none;fillColor=none;fontSize=18;" vertex="1" parent="45">
                    <mxGeometry x="10" y="170" width="300" height="30" as="geometry"/>
                </mxCell>
                <mxCell id="113" style="edgeStyle=orthogonalEdgeStyle;rounded=0;html=1;exitX=0;exitY=0.5;exitDx=0;exitDy=0;fontSize=18;endArrow=none;endFill=0;endSize=12;strokeWidth=1;" edge="1" parent="1" source="52">
                    <mxGeometry relative="1" as="geometry">
                        <mxPoint x="1240" y="900" as="targetPoint"/>
                    </mxGeometry>
                </mxCell>
                <mxCell id="52" value="Background" style="swimlane;fontSize=18;" vertex="1" parent="1">
                    <mxGeometry x="1320" y="840" width="320" height="120" as="geometry"/>
                </mxCell>
                <mxCell id="54" value="- Image background" style="text;html=1;align=center;verticalAlign=middle;resizable=0;points=[];autosize=1;strokeColor=none;fillColor=none;fontSize=18;" vertex="1" parent="52">
                    <mxGeometry x="35" y="50" width="180" height="30" as="geometry"/>
                </mxCell>
                <mxCell id="65" value="画面遷移処理を呼び出し" style="rounded=0;whiteSpace=wrap;html=1;fontSize=18;" vertex="1" parent="1">
                    <mxGeometry x="40" y="1320" width="240" height="40" as="geometry"/>
                </mxCell>
                <mxCell id="109" style="edgeStyle=orthogonalEdgeStyle;rounded=0;html=1;exitX=0.5;exitY=1;exitDx=0;exitDy=0;entryX=0.5;entryY=0;entryDx=0;entryDy=0;fontSize=18;endArrow=classic;endFill=1;endSize=6;strokeWidth=1;" edge="1" parent="1" source="67" target="108">
                    <mxGeometry relative="1" as="geometry"/>
                </mxCell>
                <mxCell id="67" value="遷移ボタンにイベントを登録" style="rounded=0;whiteSpace=wrap;html=1;fontSize=18;" vertex="1" parent="1">
                    <mxGeometry x="440" y="1400" width="240" height="40" as="geometry"/>
                </mxCell>
                <mxCell id="74" style="edgeStyle=orthogonalEdgeStyle;rounded=0;html=1;exitX=0.5;exitY=1;exitDx=0;exitDy=0;fontSize=18;endArrow=classic;endFill=1;endSize=6;strokeWidth=1;" edge="1" parent="1" source="73" target="65">
                    <mxGeometry relative="1" as="geometry"/>
                </mxCell>
                <mxCell id="73" value="ボタン押下イベント発生" style="rounded=0;whiteSpace=wrap;html=1;fontSize=18;" vertex="1" parent="1">
                    <mxGeometry x="40" y="1240" width="240" height="40" as="geometry"/>
                </mxCell>
                <mxCell id="101" style="edgeStyle=orthogonalEdgeStyle;rounded=0;html=1;exitX=0.5;exitY=1;exitDx=0;exitDy=0;entryX=0.5;entryY=0;entryDx=0;entryDy=0;fontSize=18;endArrow=classic;endFill=1;endSize=6;strokeWidth=1;" edge="1" parent="1" source="75" target="99">
                    <mxGeometry relative="1" as="geometry"/>
                </mxCell>
                <mxCell id="75" value="登録イベントの呼び出し" style="rounded=0;whiteSpace=wrap;html=1;fontSize=18;" vertex="1" parent="1">
                    <mxGeometry x="440" y="1560" width="240" height="40" as="geometry"/>
                </mxCell>
                <mxCell id="103" style="edgeStyle=orthogonalEdgeStyle;rounded=0;html=1;exitX=0.5;exitY=1;exitDx=0;exitDy=0;entryX=0.5;entryY=0;entryDx=0;entryDy=0;fontSize=18;endArrow=classic;endFill=1;endSize=6;strokeWidth=1;" edge="1" parent="1" source="76" target="77">
                    <mxGeometry relative="1" as="geometry"/>
                </mxCell>
                <mxCell id="76" value="&lt;font style=&quot;font-size: 12px&quot;&gt;nextScreen = (currentScreen + 1) %&amp;nbsp;&lt;/font&gt;&lt;span style=&quot;font-size: 12px&quot;&gt;screenArray.Length&lt;/span&gt;" style="rounded=0;whiteSpace=wrap;html=1;fontSize=18;" vertex="1" parent="1">
                    <mxGeometry x="440" y="1720" width="240" height="40" as="geometry"/>
                </mxCell>
                <mxCell id="77" value="遷移先の背景に変更" style="rounded=0;whiteSpace=wrap;html=1;fontSize=18;" vertex="1" parent="1">
                    <mxGeometry x="440" y="2360" width="240" height="40" as="geometry"/>
                </mxCell>
                <mxCell id="83" value="ScreenManager" style="swimlane;fontSize=18;" vertex="1" parent="1">
                    <mxGeometry x="440" y="840" width="360" height="520" as="geometry"/>
                </mxCell>
                <mxCell id="84" value="&lt;span style=&quot;text-align: left&quot;&gt;-&amp;nbsp;ScreenTransition(ScreenType type)&lt;/span&gt;" style="text;html=1;align=center;verticalAlign=middle;resizable=0;points=[];autosize=1;strokeColor=none;fillColor=none;fontSize=18;" vertex="1" parent="83">
                    <mxGeometry x="10" y="290" width="310" height="30" as="geometry"/>
                </mxCell>
                <mxCell id="85" value="- ScreenTransitionButton[] buttonArray" style="text;html=1;align=center;verticalAlign=middle;resizable=0;points=[];autosize=1;strokeColor=none;fillColor=none;fontSize=18;" vertex="1" parent="83">
                    <mxGeometry x="10" y="50" width="320" height="30" as="geometry"/>
                </mxCell>
                <mxCell id="86" value="- Screen[] screenArray" style="text;html=1;align=center;verticalAlign=middle;resizable=0;points=[];autosize=1;strokeColor=none;fillColor=none;fontSize=18;" vertex="1" parent="83">
                    <mxGeometry x="10" y="90" width="200" height="30" as="geometry"/>
                </mxCell>
                <mxCell id="91" value="- int currentScreen" style="text;html=1;align=center;verticalAlign=middle;resizable=0;points=[];autosize=1;strokeColor=none;fillColor=none;fontSize=18;" vertex="1" parent="83">
                    <mxGeometry x="10" y="130" width="160" height="30" as="geometry"/>
                </mxCell>
                <mxCell id="97" value="&lt;div style=&quot;text-align: left&quot;&gt;&lt;span&gt;- NextScreen()&lt;/span&gt;&lt;/div&gt;" style="text;html=1;align=center;verticalAlign=middle;resizable=0;points=[];autosize=1;strokeColor=none;fillColor=none;fontSize=18;" vertex="1" parent="83">
                    <mxGeometry x="10" y="330" width="130" height="30" as="geometry"/>
                </mxCell>
                <mxCell id="98" value="&lt;div style=&quot;text-align: left&quot;&gt;&lt;span&gt;- PreviousScreen()&lt;/span&gt;&lt;/div&gt;" style="text;html=1;align=center;verticalAlign=middle;resizable=0;points=[];autosize=1;strokeColor=none;fillColor=none;fontSize=18;" vertex="1" parent="83">
                    <mxGeometry x="10" y="369" width="170" height="30" as="geometry"/>
                </mxCell>
                <mxCell id="145" value="- ChangeGimmickScreen()" style="text;html=1;align=center;verticalAlign=middle;resizable=0;points=[];autosize=1;strokeColor=none;fillColor=none;fontSize=18;" vertex="1" parent="83">
                    <mxGeometry x="10" y="450" width="230" height="30" as="geometry"/>
                </mxCell>
                <mxCell id="94" value="+ enum screenType" style="text;html=1;align=center;verticalAlign=middle;resizable=0;points=[];autosize=1;strokeColor=none;fillColor=none;fontSize=18;" vertex="1" parent="83">
                    <mxGeometry x="10" y="210" width="170" height="30" as="geometry"/>
                </mxCell>
                <mxCell id="182" value="- int prevScreen" style="text;html=1;align=center;verticalAlign=middle;resizable=0;points=[];autosize=1;strokeColor=none;fillColor=none;fontSize=18;" vertex="1" parent="83">
                    <mxGeometry x="10" y="170" width="140" height="30" as="geometry"/>
                </mxCell>
                <mxCell id="201" value="- BackScreen()" style="text;html=1;align=center;verticalAlign=middle;resizable=0;points=[];autosize=1;strokeColor=none;fillColor=none;fontSize=18;" vertex="1" parent="83">
                    <mxGeometry x="10" y="410" width="140" height="30" as="geometry"/>
                </mxCell>
                <mxCell id="112" style="edgeStyle=orthogonalEdgeStyle;rounded=0;html=1;exitX=0;exitY=0.5;exitDx=0;exitDy=0;fontSize=18;endArrow=diamondThin;endFill=0;endSize=12;strokeWidth=1;" edge="1" parent="1" source="87">
                    <mxGeometry relative="1" as="geometry">
                        <mxPoint x="800" y="980" as="targetPoint"/>
                    </mxGeometry>
                </mxCell>
                <mxCell id="87" value="Screen" style="swimlane;fontSize=18;" vertex="1" parent="1">
                    <mxGeometry x="880" y="840" width="360" height="280" as="geometry"/>
                </mxCell>
                <mxCell id="93" value="+ Display()" style="text;html=1;align=center;verticalAlign=middle;resizable=0;points=[];autosize=1;strokeColor=none;fillColor=none;fontSize=18;" vertex="1" parent="87">
                    <mxGeometry x="10" y="170" width="100" height="30" as="geometry"/>
                </mxCell>
                <mxCell id="95" value="- Background background" style="text;html=1;align=center;verticalAlign=middle;resizable=0;points=[];autosize=1;strokeColor=none;fillColor=none;fontSize=18;" vertex="1" parent="87">
                    <mxGeometry x="10" y="50" width="220" height="30" as="geometry"/>
                </mxCell>
                <mxCell id="150" value="- Gimmick[] gimmickArray" style="text;html=1;align=center;verticalAlign=middle;resizable=0;points=[];autosize=1;strokeColor=none;fillColor=none;fontSize=18;" vertex="1" parent="87">
                    <mxGeometry x="10" y="90" width="220" height="30" as="geometry"/>
                </mxCell>
                <mxCell id="152" value="+ GetGimmickScreen(ScreenType type)" style="text;html=1;align=center;verticalAlign=middle;resizable=0;points=[];autosize=1;strokeColor=none;fillColor=none;fontSize=18;" vertex="1" parent="87">
                    <mxGeometry x="10" y="210" width="330" height="30" as="geometry"/>
                </mxCell>
                <mxCell id="102" style="edgeStyle=orthogonalEdgeStyle;rounded=0;html=1;exitX=0.5;exitY=1;exitDx=0;exitDy=0;entryX=0.5;entryY=0;entryDx=0;entryDy=0;fontSize=18;endArrow=classic;endFill=1;endSize=6;strokeWidth=1;" edge="1" parent="1" source="99" target="76">
                    <mxGeometry relative="1" as="geometry"/>
                </mxCell>
                <mxCell id="106" style="edgeStyle=orthogonalEdgeStyle;rounded=0;html=1;exitX=1;exitY=0.5;exitDx=0;exitDy=0;entryX=0.5;entryY=0;entryDx=0;entryDy=0;fontSize=18;endArrow=classic;endFill=1;endSize=6;strokeWidth=1;" edge="1" parent="1" source="99" target="153">
                    <mxGeometry relative="1" as="geometry"/>
                </mxCell>
                <mxCell id="99" value="type == Right" style="rhombus;whiteSpace=wrap;html=1;fontSize=18;" vertex="1" parent="1">
                    <mxGeometry x="440" y="1640" width="240" height="40" as="geometry"/>
                </mxCell>
                <mxCell id="179" style="edgeStyle=orthogonalEdgeStyle;rounded=0;html=1;exitX=0.5;exitY=1;exitDx=0;exitDy=0;fontSize=18;endArrow=none;endFill=0;endSize=6;strokeWidth=1;" edge="1" parent="1" source="100">
                    <mxGeometry relative="1" as="geometry">
                        <mxPoint x="840" y="2340" as="targetPoint"/>
                    </mxGeometry>
                </mxCell>
                <mxCell id="100" value="&lt;font style=&quot;font-size: 12px&quot;&gt;nextScreen = Mathf.Max(currentScreen - 1,screenArray.Length)&lt;/font&gt;" style="rounded=0;whiteSpace=wrap;html=1;fontSize=18;" vertex="1" parent="1">
                    <mxGeometry x="720" y="1800" width="240" height="40" as="geometry"/>
                </mxCell>
                <mxCell id="104" value="Yes" style="text;html=1;align=center;verticalAlign=middle;resizable=0;points=[];autosize=1;strokeColor=none;fillColor=none;fontSize=18;" vertex="1" parent="1">
                    <mxGeometry x="560" y="1680" width="40" height="30" as="geometry"/>
                </mxCell>
                <mxCell id="105" value="No" style="text;html=1;align=center;verticalAlign=middle;resizable=0;points=[];autosize=1;strokeColor=none;fillColor=none;fontSize=18;" vertex="1" parent="1">
                    <mxGeometry x="680" y="1630" width="40" height="30" as="geometry"/>
                </mxCell>
                <mxCell id="108" value="遷移ボタンに向きを設定" style="rounded=0;whiteSpace=wrap;html=1;fontSize=18;" vertex="1" parent="1">
                    <mxGeometry x="440" y="1480" width="240" height="40" as="geometry"/>
                </mxCell>
                <mxCell id="115" value="・ギミックがクリック（タップ）されたら画面が変わる" style="text;html=1;align=center;verticalAlign=middle;resizable=0;points=[];autosize=1;strokeColor=none;fillColor=none;fontSize=18;" vertex="1" parent="1">
                    <mxGeometry x="95" y="610" width="470" height="30" as="geometry"/>
                </mxCell>
                <mxCell id="116" value="・左右の矢印がクリック（タップ）されたら画面が変わる（画面は循環する）" style="text;html=1;align=center;verticalAlign=middle;resizable=0;points=[];autosize=1;strokeColor=none;fillColor=none;fontSize=18;" vertex="1" parent="1">
                    <mxGeometry x="80" y="570" width="650" height="30" as="geometry"/>
                </mxCell>
                <mxCell id="118" value="・戻る矢印がクリック（タップ）されたら画面が変わる" style="text;html=1;align=center;verticalAlign=middle;resizable=0;points=[];autosize=1;strokeColor=none;fillColor=none;fontSize=18;" vertex="1" parent="1">
                    <mxGeometry x="80" y="650" width="470" height="30" as="geometry"/>
                </mxCell>
                <mxCell id="123" value="" style="shape=singleArrow;direction=west;whiteSpace=wrap;html=1;fontSize=24;strokeColor=#000000;strokeWidth=2;rotation=-180;arrowWidth=0.55;arrowSize=0.21428571428571427;" vertex="1" parent="1">
                    <mxGeometry x="760" y="320" width="280" height="40" as="geometry"/>
                </mxCell>
                <mxCell id="124" value="&lt;font style=&quot;font-size: 18px&quot;&gt;ギミックをクリック（タップ）&lt;/font&gt;" style="text;html=1;align=center;verticalAlign=middle;resizable=0;points=[];autosize=1;strokeColor=none;fillColor=none;fontSize=24;" vertex="1" parent="1">
                    <mxGeometry x="770" y="230" width="270" height="40" as="geometry"/>
                </mxCell>
                <mxCell id="125" value="" style="shape=trapezoid;perimeter=trapezoidPerimeter;whiteSpace=wrap;html=1;fixedSize=1;fontSize=18;strokeColor=#000000;strokeWidth=2;size=90;" vertex="1" parent="1">
                    <mxGeometry x="120" y="360" width="560" height="160" as="geometry"/>
                </mxCell>
                <mxCell id="126" value="" style="rounded=0;whiteSpace=wrap;html=1;fontSize=18;strokeColor=#000000;strokeWidth=2;" vertex="1" parent="1">
                    <mxGeometry x="210" y="160" width="380" height="200" as="geometry"/>
                </mxCell>
                <mxCell id="120" value="ギミック" style="rounded=1;whiteSpace=wrap;html=1;fontSize=18;arcSize=11;strokeColor=#FF1212;strokeWidth=2;" vertex="1" parent="1">
                    <mxGeometry x="220" y="270" width="130" height="130" as="geometry"/>
                </mxCell>
                <mxCell id="129" value="" style="rounded=0;whiteSpace=wrap;html=1;fontSize=36;strokeWidth=3;fillColor=#FAFAFA;strokeColor=#050505;" vertex="1" parent="1">
                    <mxGeometry x="1080" y="160" width="640" height="360" as="geometry"/>
                </mxCell>
                <mxCell id="139" value="" style="rounded=0;whiteSpace=wrap;html=1;fontSize=18;strokeColor=#000000;strokeWidth=2;" vertex="1" parent="1">
                    <mxGeometry x="1080" y="160" width="80" height="360" as="geometry"/>
                </mxCell>
                <mxCell id="138" value="" style="shape=manualInput;whiteSpace=wrap;html=1;fontSize=18;strokeColor=#000000;strokeWidth=2;rotation=-180;direction=south;flipV=1;size=40;" vertex="1" parent="1">
                    <mxGeometry x="1120" y="455" width="600" height="65" as="geometry"/>
                </mxCell>
                <mxCell id="136" value="ギミック" style="rounded=1;whiteSpace=wrap;html=1;fontSize=18;arcSize=11;strokeColor=#FF1212;strokeWidth=2;" vertex="1" parent="1">
                    <mxGeometry x="1235" y="175" width="285" height="285" as="geometry"/>
                </mxCell>
                <mxCell id="143" value="" style="group" vertex="1" connectable="0" parent="1">
                    <mxGeometry x="1120" y="480" width="560" height="340" as="geometry"/>
                </mxCell>
                <mxCell id="141" value="" style="rounded=0;whiteSpace=wrap;html=1;fontSize=36;strokeColor=#006EAF;strokeWidth=1;fillColor=#1ba1e2;fontColor=#ffffff;rotation=90;" vertex="1" parent="143">
                    <mxGeometry x="260" y="-300" width="40" height="640" as="geometry"/>
                </mxCell>
                <mxCell id="142" value="" style="triangle;whiteSpace=wrap;html=1;fontSize=36;strokeColor=#001DBC;strokeWidth=1;fillColor=#0050ef;fontColor=#ffffff;rotation=90;" vertex="1" parent="143">
                    <mxGeometry x="270" y="-20" width="20" height="80" as="geometry"/>
                </mxCell>
                <mxCell id="181" style="edgeStyle=orthogonalEdgeStyle;rounded=0;html=1;exitX=0;exitY=0.25;exitDx=0;exitDy=0;fontSize=18;endArrow=diamondThin;endFill=0;endSize=12;strokeWidth=1;" edge="1" parent="1" source="144">
                    <mxGeometry relative="1" as="geometry">
                        <mxPoint x="1240" y="1089.8235294117649" as="targetPoint"/>
                    </mxGeometry>
                </mxCell>
                <mxCell id="144" value="Gimmick" style="swimlane;fontSize=18;strokeColor=#000000;strokeWidth=1;" vertex="1" parent="1">
                    <mxGeometry x="1320" y="1000" width="400" height="360" as="geometry"/>
                </mxCell>
                <mxCell id="146" value="- Screen screen" style="text;html=1;align=center;verticalAlign=middle;resizable=0;points=[];autosize=1;strokeColor=none;fillColor=none;fontSize=18;" vertex="1" parent="144">
                    <mxGeometry x="10" y="40" width="140" height="30" as="geometry"/>
                </mxCell>
                <mxCell id="147" value="+ GetScreen()" style="text;html=1;align=center;verticalAlign=middle;resizable=0;points=[];autosize=1;strokeColor=none;fillColor=none;fontSize=18;" vertex="1" parent="144">
                    <mxGeometry x="10" y="250" width="130" height="30" as="geometry"/>
                </mxCell>
                <mxCell id="148" value="-&amp;nbsp;ScreenTransitionButton button" style="text;html=1;align=center;verticalAlign=middle;resizable=0;points=[];autosize=1;strokeColor=none;fillColor=none;fontSize=18;" vertex="1" parent="144">
                    <mxGeometry x="10" y="90" width="270" height="30" as="geometry"/>
                </mxCell>
                <mxCell id="149" value="- PassScreenType()" style="text;html=1;align=center;verticalAlign=middle;resizable=0;points=[];autosize=1;strokeColor=none;fillColor=none;fontSize=18;" vertex="1" parent="144">
                    <mxGeometry x="10" y="290" width="170" height="30" as="geometry"/>
                </mxCell>
                <mxCell id="158" value="- ScreenType screenType" style="text;html=1;align=center;verticalAlign=middle;resizable=0;points=[];autosize=1;strokeColor=none;fillColor=none;fontSize=18;" vertex="1" parent="144">
                    <mxGeometry x="10" y="130" width="220" height="30" as="geometry"/>
                </mxCell>
                <mxCell id="164" value="+ IsScreenTypeMatched(ScreenType type)" style="text;html=1;align=center;verticalAlign=middle;resizable=0;points=[];autosize=1;strokeColor=none;fillColor=none;fontSize=18;" vertex="1" parent="144">
                    <mxGeometry x="10" y="210" width="360" height="30" as="geometry"/>
                </mxCell>
                <mxCell id="154" style="edgeStyle=orthogonalEdgeStyle;rounded=0;html=1;exitX=0.5;exitY=1;exitDx=0;exitDy=0;entryX=0.5;entryY=0;entryDx=0;entryDy=0;fontSize=18;endArrow=classic;endFill=1;endSize=6;strokeWidth=1;" edge="1" parent="1" source="153" target="100">
                    <mxGeometry relative="1" as="geometry"/>
                </mxCell>
                <mxCell id="186" style="edgeStyle=orthogonalEdgeStyle;rounded=0;html=1;exitX=1;exitY=0.5;exitDx=0;exitDy=0;entryX=0.5;entryY=0;entryDx=0;entryDy=0;fontSize=18;endArrow=classic;endFill=1;endSize=6;strokeWidth=1;" edge="1" parent="1" source="153" target="185">
                    <mxGeometry relative="1" as="geometry"/>
                </mxCell>
                <mxCell id="153" value="type == Left" style="rhombus;whiteSpace=wrap;html=1;fontSize=18;" vertex="1" parent="1">
                    <mxGeometry x="720" y="1720" width="240" height="40" as="geometry"/>
                </mxCell>
                <mxCell id="155" value="Yes" style="text;html=1;align=center;verticalAlign=middle;resizable=0;points=[];autosize=1;strokeColor=none;fillColor=none;fontSize=18;" vertex="1" parent="1">
                    <mxGeometry x="840" y="1760" width="40" height="30" as="geometry"/>
                </mxCell>
                <mxCell id="156" value="No" style="text;html=1;align=center;verticalAlign=middle;resizable=0;points=[];autosize=1;strokeColor=none;fillColor=none;fontSize=18;" vertex="1" parent="1">
                    <mxGeometry x="960" y="1710" width="40" height="30" as="geometry"/>
                </mxCell>
                <mxCell id="169" style="edgeStyle=orthogonalEdgeStyle;rounded=0;html=1;exitX=0.5;exitY=1;exitDx=0;exitDy=0;entryX=0.5;entryY=0;entryDx=0;entryDy=0;fontSize=18;endArrow=classic;endFill=1;endSize=6;strokeWidth=1;" edge="1" parent="1" source="157" target="165">
                    <mxGeometry relative="1" as="geometry"/>
                </mxCell>
                <mxCell id="157" value="現在のシーンに&lt;br&gt;ScreenTypeを渡す" style="rounded=0;whiteSpace=wrap;html=1;fontSize=18;strokeColor=#000000;strokeWidth=1;" vertex="1" parent="1">
                    <mxGeometry x="1320" y="1960" width="240" height="40" as="geometry"/>
                </mxCell>
                <mxCell id="172" style="edgeStyle=orthogonalEdgeStyle;rounded=0;html=1;exitX=0.5;exitY=1;exitDx=0;exitDy=0;entryX=0.5;entryY=1;entryDx=0;entryDy=0;fontSize=18;endArrow=classic;endFill=1;endSize=6;strokeWidth=1;" edge="1" parent="1" source="163" target="166">
                    <mxGeometry relative="1" as="geometry"/>
                </mxCell>
                <mxCell id="163" value="ギミックからScreenを取得" style="rounded=0;whiteSpace=wrap;html=1;fontSize=18;strokeColor=#000000;strokeWidth=1;" vertex="1" parent="1">
                    <mxGeometry x="1320" y="2200" width="240" height="40" as="geometry"/>
                </mxCell>
                <mxCell id="170" style="edgeStyle=orthogonalEdgeStyle;rounded=0;html=1;exitX=0.5;exitY=1;exitDx=0;exitDy=0;entryX=0.5;entryY=0;entryDx=0;entryDy=0;fontSize=18;endArrow=classic;endFill=1;endSize=6;strokeWidth=1;" edge="1" parent="1" source="165" target="167">
                    <mxGeometry relative="1" as="geometry"/>
                </mxCell>
                <mxCell id="165" value="gimmickArray" style="shape=trapezoid;perimeter=trapezoidPerimeter;whiteSpace=wrap;html=1;fixedSize=1;fontSize=18;strokeColor=#000000;strokeWidth=1;size=30;" vertex="1" parent="1">
                    <mxGeometry x="1320" y="2040" width="240" height="40" as="geometry"/>
                </mxCell>
                <mxCell id="193" style="edgeStyle=orthogonalEdgeStyle;rounded=0;html=1;exitX=0.5;exitY=0;exitDx=0;exitDy=0;fontSize=18;endArrow=classic;endFill=1;endSize=6;strokeWidth=1;" edge="1" parent="1" source="166">
                    <mxGeometry relative="1" as="geometry">
                        <mxPoint x="560" y="2340" as="targetPoint"/>
                        <Array as="points">
                            <mxPoint x="1440" y="2340"/>
                            <mxPoint x="560" y="2340"/>
                        </Array>
                    </mxGeometry>
                </mxCell>
                <mxCell id="166" value="" style="shape=trapezoid;perimeter=trapezoidPerimeter;whiteSpace=wrap;html=1;fixedSize=1;fontSize=18;strokeColor=#000000;strokeWidth=1;rotation=-180;size=30;" vertex="1" parent="1">
                    <mxGeometry x="1320" y="2280" width="240" height="40" as="geometry"/>
                </mxCell>
                <mxCell id="173" style="edgeStyle=orthogonalEdgeStyle;rounded=0;html=1;exitX=1;exitY=0.5;exitDx=0;exitDy=0;fontSize=18;endArrow=classic;endFill=1;endSize=6;strokeWidth=1;" edge="1" parent="1" source="167">
                    <mxGeometry relative="1" as="geometry">
                        <mxPoint x="1440" y="2260" as="targetPoint"/>
                        <Array as="points">
                            <mxPoint x="1600" y="2140"/>
                            <mxPoint x="1600" y="2260"/>
                        </Array>
                    </mxGeometry>
                </mxCell>
                <mxCell id="175" style="edgeStyle=orthogonalEdgeStyle;rounded=0;html=1;exitX=0.5;exitY=1;exitDx=0;exitDy=0;entryX=0.5;entryY=0;entryDx=0;entryDy=0;fontSize=18;endArrow=classic;endFill=1;endSize=6;strokeWidth=1;" edge="1" parent="1" source="167" target="163">
                    <mxGeometry relative="1" as="geometry"/>
                </mxCell>
                <mxCell id="167" value="ScreenTypeが一致" style="rhombus;whiteSpace=wrap;html=1;fontSize=18;strokeColor=#000000;strokeWidth=1;" vertex="1" parent="1">
                    <mxGeometry x="1320" y="2120" width="240" height="40" as="geometry"/>
                </mxCell>
                <mxCell id="176" value="Yes" style="text;html=1;align=center;verticalAlign=middle;resizable=0;points=[];autosize=1;strokeColor=none;fillColor=none;fontSize=18;" vertex="1" parent="1">
                    <mxGeometry x="1441" y="2160" width="40" height="30" as="geometry"/>
                </mxCell>
                <mxCell id="177" value="No" style="text;html=1;align=center;verticalAlign=middle;resizable=0;points=[];autosize=1;strokeColor=none;fillColor=none;fontSize=18;" vertex="1" parent="1">
                    <mxGeometry x="1561" y="2110" width="40" height="30" as="geometry"/>
                </mxCell>
                <mxCell id="184" style="edgeStyle=orthogonalEdgeStyle;rounded=0;html=1;exitX=0.5;exitY=1;exitDx=0;exitDy=0;entryX=0.5;entryY=0;entryDx=0;entryDy=0;fontSize=18;endArrow=classic;endFill=1;endSize=6;strokeWidth=1;" edge="1" parent="1" source="183" target="157">
                    <mxGeometry relative="1" as="geometry"/>
                </mxCell>
                <mxCell id="183" value="現在のスクリーンを&lt;br&gt;prevScreenに保持" style="rounded=0;whiteSpace=wrap;html=1;fontSize=18;strokeColor=#000000;strokeWidth=1;" vertex="1" parent="1">
                    <mxGeometry x="1320" y="1880" width="240" height="40" as="geometry"/>
                </mxCell>
                <mxCell id="189" style="edgeStyle=orthogonalEdgeStyle;rounded=0;html=1;exitX=0.5;exitY=1;exitDx=0;exitDy=0;entryX=0.5;entryY=0;entryDx=0;entryDy=0;fontSize=18;endArrow=classic;endFill=1;endSize=6;strokeWidth=1;" edge="1" parent="1" source="185" target="187">
                    <mxGeometry relative="1" as="geometry"/>
                </mxCell>
                <mxCell id="192" style="edgeStyle=orthogonalEdgeStyle;rounded=0;html=1;exitX=1;exitY=0.5;exitDx=0;exitDy=0;entryX=0.5;entryY=0;entryDx=0;entryDy=0;fontSize=18;endArrow=classic;endFill=1;endSize=6;strokeWidth=1;" edge="1" parent="1" source="185" target="183">
                    <mxGeometry relative="1" as="geometry"/>
                </mxCell>
                <mxCell id="185" value="type == Back" style="rhombus;whiteSpace=wrap;html=1;fontSize=18;" vertex="1" parent="1">
                    <mxGeometry x="1001" y="1800" width="240" height="40" as="geometry"/>
                </mxCell>
                <mxCell id="190" style="edgeStyle=orthogonalEdgeStyle;rounded=0;html=1;exitX=0.5;exitY=1;exitDx=0;exitDy=0;entryX=0.5;entryY=0;entryDx=0;entryDy=0;fontSize=18;endArrow=classic;endFill=1;endSize=6;strokeWidth=1;" edge="1" parent="1" source="187" target="188">
                    <mxGeometry relative="1" as="geometry"/>
                </mxCell>
                <mxCell id="195" style="edgeStyle=orthogonalEdgeStyle;rounded=0;html=1;exitX=1;exitY=0.5;exitDx=0;exitDy=0;fontSize=18;endArrow=classic;endFill=1;endSize=6;strokeWidth=1;" edge="1" parent="1" source="187">
                    <mxGeometry relative="1" as="geometry">
                        <mxPoint x="1120" y="2040" as="targetPoint"/>
                        <Array as="points">
                            <mxPoint x="1280" y="1900"/>
                            <mxPoint x="1280" y="2040"/>
                        </Array>
                    </mxGeometry>
                </mxCell>
                <mxCell id="187" value="prevScreen &amp;gt; 0" style="rhombus;whiteSpace=wrap;html=1;fontSize=18;" vertex="1" parent="1">
                    <mxGeometry x="1001" y="1880" width="240" height="40" as="geometry"/>
                </mxCell>
                <mxCell id="194" style="edgeStyle=orthogonalEdgeStyle;rounded=0;html=1;exitX=0.5;exitY=1;exitDx=0;exitDy=0;fontSize=18;endArrow=none;endFill=0;endSize=6;strokeWidth=1;" edge="1" parent="1" source="188">
                    <mxGeometry relative="1" as="geometry">
                        <mxPoint x="1119.5294117647059" y="2340" as="targetPoint"/>
                    </mxGeometry>
                </mxCell>
                <mxCell id="188" value="ひとつ前のスクリーンを取得" style="rounded=0;whiteSpace=wrap;html=1;fontSize=18;strokeColor=#000000;strokeWidth=1;" vertex="1" parent="1">
                    <mxGeometry x="1000" y="1960" width="240" height="40" as="geometry"/>
                </mxCell>
                <mxCell id="196" value="No" style="text;html=1;align=center;verticalAlign=middle;resizable=0;points=[];autosize=1;strokeColor=none;fillColor=none;fontSize=18;" vertex="1" parent="1">
                    <mxGeometry x="1241" y="1790" width="40" height="30" as="geometry"/>
                </mxCell>
                <mxCell id="197" value="Yes" style="text;html=1;align=center;verticalAlign=middle;resizable=0;points=[];autosize=1;strokeColor=none;fillColor=none;fontSize=18;" vertex="1" parent="1">
                    <mxGeometry x="1120" y="1835" width="40" height="30" as="geometry"/>
                </mxCell>
                <mxCell id="198" value="Yes" style="text;html=1;align=center;verticalAlign=middle;resizable=0;points=[];autosize=1;strokeColor=none;fillColor=none;fontSize=18;" vertex="1" parent="1">
                    <mxGeometry x="1120" y="1920" width="40" height="30" as="geometry"/>
                </mxCell>
                <mxCell id="199" value="No" style="text;html=1;align=center;verticalAlign=middle;resizable=0;points=[];autosize=1;strokeColor=none;fillColor=none;fontSize=18;" vertex="1" parent="1">
                    <mxGeometry x="1241" y="1870" width="40" height="30" as="geometry"/>
                </mxCell>
            </root>
        </mxGraphModel>
    </diagram>
</mxfile>